<svg xmlns="http://www.w3.org/2000/svg" viewBox="0 0 433.48 378.67"><defs><style>.cls-1{fill:#00b835;}</style></defs><title>blak-friday-corpo-perfeito</title><g id="Layer_2" data-name="Layer 2"><g id="Layer_1-2" data-name="Layer 1"><path class="cls-1" d="M240.64,170.8a7.5,7.5,0,0,0-10.61,0L192.84,208a7.5,7.5,0,1,0,10.61,10.61l37.2-37.2A7.5,7.5,0,0,0,240.64,170.8Z"/><path class="cls-1" d="M235.34,205.8a7.51,7.51,0,1,0,5.3,2.2A7.55,7.55,0,0,0,235.34,205.8Z"/><path class="cls-1" d="M198.14,183.6a7.49,7.49,0,1,0-5.31-2.2A7.55,7.55,0,0,0,198.14,183.6Z"/><path class="cls-1" d="M289.35,224.79c2.93-7.07.93-14.34-.83-20.74-.95-3.44-1.84-6.7-1.84-9.34s.89-5.89,1.84-9.34c1.76-6.41,3.76-13.67.83-20.74-3-7.32-9.72-11.08-15.62-14.39-3-1.68-5.83-3.27-7.53-5s-3.3-4.54-5-7.53c-3.31-5.9-7.07-12.59-14.39-15.62-7.07-2.93-14.34-.93-20.74.83-3.44.95-6.7,1.84-9.34,1.84s-5.9-.9-9.34-1.84c-6.41-1.76-13.67-3.76-20.74-.83-7.32,3-11.08,9.72-14.39,15.62-1.68,3-3.27,5.83-5,7.53s-4.54,3.3-7.53,5c-5.9,3.31-12.59,7.07-15.62,14.39-2.93,7.07-.93,14.34.83,20.74.95,3.44,1.84,6.7,1.84,9.34s-.9,5.9-1.84,9.34c-1.76,6.41-3.76,13.67-.83,20.74,3,7.32,9.72,11.08,15.62,14.39,3,1.68,5.83,3.27,7.53,5s3.3,4.54,5,7.53c3.31,5.9,7.07,12.59,14.39,15.62a20.2,20.2,0,0,0,7.84,1.49c4.47,0,8.85-1.21,12.9-2.32,3.44-.95,6.7-1.84,9.34-1.84s5.9.89,9.34,1.84c6.41,1.76,13.67,3.76,20.74.83,7.32-3,11.08-9.72,14.39-15.62,1.68-3,3.27-5.83,5-7.53s4.54-3.3,7.53-5C279.63,235.87,286.32,232.11,289.35,224.79ZM275.5,219c-1,2.53-5.15,4.83-9.11,7.06-3.75,2.11-7.63,4.28-10.79,7.45s-5.34,7-7.45,10.79c-2.23,4-4.53,8.06-7.06,9.11-2.31,1-6.74-.26-11-1.44-4.05-1.12-8.65-2.38-13.32-2.38s-9.26,1.26-13.32,2.38c-4.28,1.18-8.7,2.4-11,1.43-2.53-1-4.83-5.15-7.06-9.11-2.11-3.75-4.29-7.63-7.45-10.79s-7-5.34-10.79-7.45c-4-2.23-8.06-4.53-9.11-7.06-1-2.31.26-6.74,1.43-11,1.12-4.05,2.38-8.65,2.38-13.32s-1.26-9.26-2.38-13.32c-1.18-4.28-2.4-8.7-1.44-11,1.05-2.53,5.15-4.83,9.11-7.06,3.75-2.11,7.63-4.29,10.79-7.45s5.34-7,7.45-10.79c2.23-4,4.53-8.07,7.06-9.11,2.32-1,6.74.26,11,1.44,4.05,1.12,8.65,2.38,13.32,2.38s9.26-1.26,13.32-2.38c4.28-1.18,8.71-2.39,11-1.44,2.53,1,4.83,5.15,7.06,9.11,2.11,3.75,4.28,7.63,7.45,10.79s7,5.34,10.79,7.45c4,2.23,8.06,4.53,9.11,7.06,1,2.31-.26,6.74-1.44,11-1.11,4.05-2.38,8.65-2.38,13.32s1.27,9.26,2.38,13.32C275.24,212.3,276.46,216.73,275.5,219Z"/><path class="cls-1" d="M120.82,102.19h43.59a7.5,7.5,0,0,0,7.5-7.5V82.56a7.5,7.5,0,1,0-15,0v4.63H128.32V7.5a7.5,7.5,0,0,0-15,0V94.69A7.5,7.5,0,0,0,120.82,102.19Z"/><path class="cls-1" d="M296.19,102.19a29.33,29.33,0,0,0,29.3-29.3,7.5,7.5,0,1,0-15,0,14.3,14.3,0,0,1-28.59,0V29.3a14.3,14.3,0,1,1,28.59,0,7.5,7.5,0,0,0,15,0,29.3,29.3,0,1,0-58.59,0V72.89A29.33,29.33,0,0,0,296.19,102.19Z"/><path class="cls-1" d="M35.65,50.69h1.29v44a7.5,7.5,0,0,0,7.5,7.5H62.28A33.24,33.24,0,0,0,81.21,41.61,25.33,25.33,0,0,0,61.79,0H44.44a7.5,7.5,0,0,0-7.5,7.5V35.68H35.65a7.5,7.5,0,1,0,0,15ZM51.94,15h9.84a10.34,10.34,0,1,1,0,20.68H51.94Zm0,35.68H62.28a18.25,18.25,0,0,1,0,36.5H51.94Z"/><path class="cls-1" d="M195,101.62a7.5,7.5,0,0,0,7.5-7.5V72.57h28V94.12a7.5,7.5,0,1,0,15,0V29.58a29,29,0,1,0-58,0V94.12A7.5,7.5,0,0,0,195,101.62Zm7.5-72a14,14,0,1,1,28,0v28h-28Z"/><path class="cls-1" d="M353.42,102.19a7.5,7.5,0,0,0,7.5-7.5V69L392.57,100a7.5,7.5,0,1,0,10.51-10.71L363.57,50.55,395,12.26A7.5,7.5,0,1,0,383.4,2.74L360.92,30.13V7.5a7.5,7.5,0,0,0-15,0V94.69A7.5,7.5,0,0,0,353.42,102.19Z"/><path class="cls-1" d="M83.2,287.22H45.54a7.5,7.5,0,0,0-7.5,7.5v75.34a7.5,7.5,0,0,0,15,0v-25.5H66.94a7.5,7.5,0,0,0,0-15H53V302.22H75.7v3a7.5,7.5,0,0,0,15,0V294.72A7.5,7.5,0,0,0,83.2,287.22Z"/><path class="cls-1" d="M181.44,287.22a7.5,7.5,0,0,0-7.5,7.5v75.34a7.5,7.5,0,0,0,15,0V294.72A7.5,7.5,0,0,0,181.44,287.22Z"/><path class="cls-1" d="M406.44,290.17a7.5,7.5,0,0,0-10.13,3.13L376.94,330,357.58,293.3a7.5,7.5,0,0,0-13.27,7l25.13,47.61v22.14a7.5,7.5,0,0,0,15,0V347.92l25.13-47.61A7.5,7.5,0,0,0,406.44,290.17Z"/><path class="cls-1" d="M225.05,287.22h-7.79a7.5,7.5,0,0,0-7.5,7.5v75.34a7.5,7.5,0,0,0,7.5,7.5h7.79a37.42,37.42,0,0,0,37.37-37.37V324.6A37.42,37.42,0,0,0,225.05,287.22Zm22.37,53a22.4,22.4,0,0,1-22.37,22.37h-.29V302.22h.29a22.4,22.4,0,0,1,22.37,22.37Z"/><path class="cls-1" d="M125.78,287.22H115.54a7.5,7.5,0,0,0-7.5,7.5v32.83h-.1a7.5,7.5,0,0,0,0,15h.1v27.5a7.5,7.5,0,0,0,15,0v-27.5H128A10.48,10.48,0,0,1,138.45,353v17a7.5,7.5,0,0,0,15,0V353a25.41,25.41,0,0,0-8.09-18.6,27.65,27.65,0,0,0-19.58-47.2Zm0,40.34H123V302.22h2.74a12.67,12.67,0,0,1,0,25.34Z"/><path class="cls-1" d="M306.63,289.31a26.12,26.12,0,0,0-26.09,26.09v55.77a7.5,7.5,0,0,0,15,0V353.56h22.18v17.61a7.5,7.5,0,0,0,15,0V315.4A26.12,26.12,0,0,0,306.63,289.31Zm11.09,49.26H295.54V315.4a11.09,11.09,0,0,1,22.18,0Z"/><path class="cls-1" d="M426,187.2H331.48a7.5,7.5,0,0,0,0,15H426a7.5,7.5,0,0,0,0-15Z"/><path class="cls-1" d="M375,157.21a7.5,7.5,0,0,0-7.5-7.5H318a7.5,7.5,0,0,0,0,15h49.5A7.5,7.5,0,0,0,375,157.21Z"/><path class="cls-1" d="M310.48,232.2a7.5,7.5,0,0,0,7.5,7.5h49.5a7.5,7.5,0,0,0,0-15H318A7.5,7.5,0,0,0,310.48,232.2Z"/><path class="cls-1" d="M109.49,194.7a7.5,7.5,0,0,0-7.5-7.5H7.5a7.5,7.5,0,0,0,0,15H102A7.5,7.5,0,0,0,109.49,194.7Z"/><path class="cls-1" d="M115.49,149.71H66a7.5,7.5,0,1,0,0,15h49.5a7.5,7.5,0,0,0,0-15Z"/><path class="cls-1" d="M115.49,224.7H66a7.5,7.5,0,0,0,0,15h49.5a7.5,7.5,0,1,0,0-15Z"/></g></g></svg>