<?xml version="1.0" encoding="utf-8"?>
<!-- Generator: Adobe Illustrator 19.0.0, SVG Export Plug-In . SVG Version: 6.00 Build 0)  -->
<svg version="1.1" id="Layer_1" xmlns="http://www.w3.org/2000/svg" xmlns:xlink="http://www.w3.org/1999/xlink" x="0px" y="0px"
	 viewBox="0 0 490.9 119.1" style="enable-background:new 0 0 490.9 119.1;" xml:space="preserve">
<style type="text/css">
	.st0{fill:#FFFFFF;}
</style>
<g id="XMLID_2_">
	<g id="XMLID_7_">
		<path id="XMLID_36_" class="st0" d="M177.5,33.5c-1.4-2-4.1-3-8.1-3c-9.6,0-16.3,4.8-19.7,14.4l-7.5,20.7c-1.9,5.1-2,8.5-0.5,10.7
			c1.4,2,4.4,3,9,3c8.4,0,15.5-5.1,18.5-13.3l2.4-6.6h-10.3l-3.3,9.2c-0.8,2.2-1.7,4.7-4.7,4.7c-1.1,0-1.6-0.5-1.8-0.9
			c-0.6-0.8-0.6-2.1,0.1-3.8l10.2-28.1c0.9-2.5,2.4-3.9,4.1-3.9c1.1,0,1.9,0.3,2.3,1c0.8,1.1,0.2,2.6-0.2,3.8l-2.8,7.6h10.3l2.3-6.2
			C178.9,38.8,178.9,35.5,177.5,33.5z"/>
		<path id="XMLID_33_" class="st0" d="M205.7,51.1c1.4-3.8,1.4-6.7,0-8.7c-1.9-2.7-6.2-3.1-8.5-3.1c-4.1,0-14.1,1.2-18.2,12.6
			l-5.7,15.6c-1.4,3.8-1.4,6.7,0,8.7c1.9,2.7,6.2,3.1,8.5,3.1c4.1,0,14.1-1.2,18.2-12.6L205.7,51.1z M196.8,48.7l-7.7,21.2
			c-0.6,1.6-2,3.4-4.2,3.4c-0.9,0-1.7-0.4-2.1-1c-0.5-0.8-0.6-1.9-0.1-3.1l7.7-21.2c0.6-1.6,2-3.4,4.2-3.4c0.9,0,1.7,0.3,2.1,1
			C197.2,46.3,197.2,47.4,196.8,48.7z"/>
		<path id="XMLID_32_" class="st0" d="M227.3,51.6c0.4,0,0.9,0,1.3,0.1l4.3-11.9c-6.5,0.2-9.8,5.8-9.8,5.8l0.5-1.5l1.3-3.7h-9.4
			l-13.8,37.9h9.9l7.5-20.7C220.5,53.9,223.6,51.6,227.3,51.6z"/>
		<path id="XMLID_29_" class="st0" d="M241.4,79.3c7.3,0,10.3-6.8,12.6-13.1l5.8-15.8c1.2-3.2,3-10.1-2.7-11.1
			c-7.2-1.2-11.8,5.4-11.8,5.4l0.9-2.5l0.7-1.9h-9.9l-15.9,43.8h9.9l3.1-8.6l0.3-0.7C234.4,74.8,235.9,79.3,241.4,79.3z M236.7,68.4
			l6.7-18.6c1.1-2.9,2.9-3.5,4.2-3.5c1,0,1.8,0.3,2.3,1c0.7,1,0.3,2.2-0.1,3.3l-6.7,18.6c-0.4,1-1.5,4.1-4.5,4.1
			c-0.8,0-1.6-0.3-2-0.9C236.1,71.4,236.1,70.1,236.7,68.4z"/>
		<path id="XMLID_26_" class="st0" d="M283.1,39.3c-4.1,0-14.1,1.2-18.2,12.6l-5.7,15.6c-1.4,3.8-1.4,6.7,0,8.7
			c1.9,2.7,6.2,3.1,8.5,3.1c4.1,0,14.1-1.2,18.2-12.6l5.7-15.6c1.4-3.8,1.4-6.7,0-8.7C289.7,39.7,285.4,39.3,283.1,39.3z
			 M282.6,48.7l-7.7,21.2c-0.6,1.6-2,3.4-4.2,3.4c-0.9,0-1.7-0.4-2.1-1c-0.5-0.8-0.6-1.9-0.1-3.1l7.7-21.2c0.6-1.6,2-3.4,4.2-3.4
			c0.9,0,1.7,0.3,2.1,1C283,46.3,283.1,47.4,282.6,48.7z"/>
		<path id="XMLID_23_" class="st0" d="M304.4,58.3h6.2c6.6,0,10.9-3.5,13.7-11.1l2.2-6c1.2-3.3,1.3-5.8,0.2-7.4
			c-1.1-1.5-3.3-2.3-6.6-2.3h-15.7l-17,46.7h9.8l7-19.2L304.4,58.3z M307.1,50.8l4.6-12.5l0.3-0.7h3c1.4,0,2.4,0.4,2.9,1.2
			c0.8,1.2,0.3,2.7,0.1,3.3l-2.4,6.6c-0.9,2.5-2.6,3.7-5.1,3.7h-3.8L307.1,50.8z"/>
		<path id="XMLID_20_" class="st0" d="M351.9,42.4c-2-2.8-6-3.1-7.6-3.1c-4.1,0-14.1,1.2-18.2,12.6l-5.7,15.6
			c-1.4,3.8-1.4,6.7,0,8.7c1.9,2.7,6.2,3.1,8.5,3.1c4.8,0,13.4-1.6,17.4-12.6l1-2.6h-9.4l-2.4,6.5c-0.9,2.3-2.3,3.5-4.2,3.5
			c-0.9,0-1.6-0.3-2-0.9c-0.6-0.9-0.3-2.1,0.1-3.2l3.8-10.5l0.3-0.7h15.7l2.8-7.7C353.3,47.4,353.3,44.4,351.9,42.4z M343.3,48.8
			l-1.8,4.9l-0.3,0.7H335l0.5-1.5l1.9-5.1c0.6-1.5,1.5-3.3,3.8-3.3c1.2,0,1.8,0.5,2.1,0.9C344.1,46.5,343.7,47.8,343.3,48.8z"/>
		<path id="XMLID_19_" class="st0" d="M396.6,31.6c-7.3,0-9.7,1.6-12.3,8.1l-0.3,0.7h-2.5l-1.6,4.4h2.5l-0.5,1.5l-11.7,32.1h9.9
			l11.9-32.8l0.3-0.7h3.6l1.6-4.4h-6.1l0.8-1.6c1.4-2.8,3.8-3.2,5.8-3.2h1.1l1.4-4L396.6,31.6L396.6,31.6z"/>
		<path id="XMLID_16_" class="st0" d="M423.6,42.4c-2-2.8-6-3.1-7.6-3.1c-4.1,0-14.1,1.2-18.2,12.6l-5.7,15.6
			c-1.4,3.8-1.4,6.7,0,8.7c1.9,2.7,6.2,3.1,8.5,3.1c4.8,0,13.4-1.6,17.4-12.6l1-2.6h-9.4l-2.4,6.5c-0.9,2.3-2.3,3.5-4.2,3.5
			c-0.9,0-1.6-0.3-2-0.9c-0.6-0.9-0.3-2.1,0.1-3.2l3.8-10.5l0.3-0.7h15.7l2.8-7.7C425,47.4,425,44.4,423.6,42.4z M415.1,48.8
			l-1.8,4.9l-0.3,0.7h-6.3l0.5-1.5l1.9-5.1c0.6-1.5,1.5-3.3,3.8-3.3c1.2,0,1.8,0.5,2.1,0.9C415.8,46.5,415.4,47.8,415.1,48.8z"/>
		<path id="XMLID_13_" class="st0" d="M435.8,31.6l-1.4,4h9.9l1.4-4H435.8z M418.8,78.3h9.9l13.8-37.9h-9.9L418.8,78.3z"/>
		<path id="XMLID_12_" class="st0" d="M461.4,44.7l1.6-4.4h-3.2l0.5-1.5l1.7-4.7h-10.3l-2,5.4l-0.3,0.7h-2.5l-1.6,4.4h2.5l-0.5,1.5
			l-8.8,24.1c-1.1,3.1-1.7,5.4-0.9,6.6c0.7,0.9,2.5,1.4,5.6,1.4h5.9l1.6-4.4h-0.1c-0.3,0-1.3,0-1.9-0.8c-0.5-0.8-0.3-1.7-0.1-2.3
			l9.2-25.3l0.3-0.7L461.4,44.7L461.4,44.7z"/>
		<path id="XMLID_9_" class="st0" d="M481.4,39.3c-4.1,0-14.1,1.2-18.2,12.6l-5.7,15.6c-1.4,3.8-1.4,6.7,0,8.7
			c1.9,2.7,6.2,3.1,8.5,3.1c4.1,0,14.1-1.2,18.2-12.6l5.7-15.6c1.4-3.8,1.4-6.7,0-8.7C488,39.7,483.7,39.3,481.4,39.3z M480.9,48.7
			l-7.7,21.2c-0.6,1.6-2,3.4-4.2,3.4c-0.9,0-1.7-0.3-2.1-1c-0.6-0.8-0.6-1.9-0.1-3.1l7.7-21.2c0.6-1.6,2-3.4,4.2-3.4
			c0.9,0,1.7,0.3,2.1,1C481.3,46.3,481.4,47.4,480.9,48.7z"/>
		<path id="XMLID_8_" class="st0" d="M373,51.6c0.4,0,0.9,0,1.3,0.1l4.3-11.9c-6.5,0.2-9.8,5.8-9.8,5.8l0.5-1.5l1.3-3.7h-9.4
			l-13.8,37.9h9.9l7.5-20.7C366.2,53.9,369.4,51.6,373,51.6z"/>
	</g>
	<g id="XMLID_3_">
		<path id="XMLID_6_" class="st0" d="M87.4,40.1c-13,2.7-32.5,7.1-46.7,7.2C8.3,47.6,7.3,33.8,54.6,0c0,0-31.8,18.7-46.9,40
			c-4.6,6.4-21.8,34.2,17,44.4c0,0,17.3,4.6,38.8,1l16.2-15.6c-9.4,3.9-27.7,5.2-41.9,4.6c-21-1-32-9-30.1-20.3
			c1,3.3,4.8,7.6,16.7,9.9c9.3,1.9,35.8,3.3,63.8-5c1.7-0.6,2.3-0.8,4.3-3c1.4-1.6,2.8-3.3,5.2-6.6C100.4,45.5,106.1,36.1,87.4,40.1
			z"/>
		<path id="XMLID_5_" class="st0" d="M101.2,55.1c15.6-19.4,13.2-30.3-52-14.7c0,0,116.9-36.1,77.1,8c-6.2,6.9-17.4,18.8-51.6,42.7
			c-31.9,22.3-44.2,28-44.2,28S69.7,94.4,101.2,55.1z"/>
		<path id="XMLID_4_" class="st0" d="M127.3,24.7c0,0,16.2-16,1.2-15.1c-5.2,0.3-13.1,2.5-28.5,7.1C100,16.7,135.1,10.3,127.3,24.7z
			"/>
	</g>
</g>
</svg>
