<svg xmlns="http://www.w3.org/2000/svg" xmlns:xlink="http://www.w3.org/1999/xlink" version="1.1" id="Layer_1" x="0px" y="0px" viewBox="0 0 48 48" style="enable-background:new 0 0 48 48;" xml:space="preserve">
<g>
	<g>
		<g>
			<g>
			</g>
		</g>
	</g>
</g>
<rect x="18" y="6" style="fill:#4E342E;" width="12" height="8"/>
<path style="fill:#212121;" d="M31,9H17V5c0-0.552,0.448-1,1-1h12c0.552,0,1,0.448,1,1V9z"/>
<path style="fill:#5D4037;" d="M31,44H17c-2.209,0-4-1.791-4-4V16c0-2.761,2.239-5,5-5h12c2.761,0,5,2.239,5,5v24  C35,42.209,33.209,44,31,44z"/>
<rect x="13" y="17" style="fill:#FDD835;" width="22" height="21"/>
<rect x="13" y="16" style="fill:#FFB300;" width="22" height="2"/>
<rect x="13" y="37" style="fill:#FFB300;" width="22" height="2"/>
<rect x="20" y="4" style="fill:#616161;" width="3" height="5"/>
<rect x="17" y="16" style="fill:#FFCA28;" width="4" height="2"/>
<rect x="17" y="37" style="fill:#FFCA28;" width="4" height="2"/>
<rect x="17" y="18" style="fill:#FFEE58;" width="4" height="19"/>
<path style="fill:#795548;" d="M17,16h4c0,0,0-0.5,0-1c0-3.25,1.575-3.75,2.025-4H21c-3.9,0-4,3-4,4V16z"/>
<path style="fill:#795548;" d="M17,39h4c0,0,0,0.5,0,1c0,1.375,0.496,1.75,1,2c0,0-1.577,0-2,0c-1.855,0-3-1.019-3-2.4V39z"/>
<rect x="21" y="9" style="fill:#5D4037;" width="3" height="2"/>
<path style="fill:#E53935;" d="M21.002,34c-1.146,0-2.284-0.49-3.075-1.439c-1.414-1.697-1.185-4.219,0.513-5.633l6-5  c1.696-1.413,4.22-1.186,5.634,0.512c1.414,1.697,1.185,4.219-0.513,5.633l-6,5C22.813,33.696,21.905,34,21.002,34z"/>
<path style="fill:#FFFFFF;" d="M28.992,25.181c0.048-0.532-0.113-1.051-0.455-1.461C28.156,23.262,27.596,23,26.999,23  c-0.33,0-0.82,0.081-1.28,0.464l-3.024,2.52l2.56,3.073l3.025-2.521C28.691,26.194,28.943,25.713,28.992,25.181z"/>
<path style="fill:#EF5350;" d="M21,24.793l-2.561,2.134c-1.697,1.414-1.927,3.937-0.513,5.633C18.717,33.51,19.855,33.999,21,34  V24.793z"/>
</svg>