<?xml version="1.0" encoding="windows-1252"?>
<!-- Generator: Adobe Illustrator 19.0.0, SVG Export Plug-In . SVG Version: 6.00 Build 0)  -->
<svg version="1.1" id="Layer_1" xmlns="http://www.w3.org/2000/svg" xmlns:xlink="http://www.w3.org/1999/xlink" x="0px" y="0px" viewBox="0 0 512 512" style="enable-background:new 0 0 512 512;" xml:space="preserve">
<polygon style="fill:#F5F7FA;" points="420.996,116 385.996,94 121.988,101 93.988,116 85.988,139 85.988,448 93.988,479   120.988,502 352.996,495 409.996,495 428.996,463 "/>
<rect x="88.988" y="202" style="fill:#FFCE54;" width="335.01" height="149"/>
<polygon style="fill:#ED5564;" points="379.996,11.5 130.988,11.5 130.988,51 382.496,55 "/>
<rect x="144.99" y="57.5" style="fill:#E6E9ED;" width="215.51" height="36.5"/>
<path style="fill:#ED5564;" d="M364.246,276.5c0,58.953-47.812,106.75-106.758,106.75c-58.953,0-106.75-47.797-106.75-106.75  s47.797-106.75,106.75-106.75C316.434,169.75,364.246,217.547,364.246,276.5z"/>
<polygon style="fill:#FFCE54;" points="304.996,260 268.988,252.5 257.488,221 246.488,250 201.488,261.5 222.988,286 216.488,325   255.988,309.5 289.496,320.5 286.496,283 "/>
<g>
	<path style="fill:#080808;" d="M383.996,85.344h-8.156V64h8.156c5.906,0,10.656-4.781,10.656-10.656V10.656   c0-5.875-4.75-10.656-10.656-10.656H128.004c-5.906,0-10.672,4.781-10.672,10.656v42.688c0,5.875,4.766,10.656,10.672,10.656h8.141   v21.344h-8.141c-29.422,0-53.344,23.906-53.344,53.312v320.016c0,29.406,23.922,53.328,53.344,53.328h255.992   c29.406,0,53.344-23.922,53.344-53.328V138.656C437.34,109.25,413.402,85.344,383.996,85.344z M96.004,213.328h61.703   c-12.031,18.422-19.047,40.406-19.047,64s7.016,45.594,19.047,64H96.004V213.328z M160.004,277.328   c0-52.922,43.062-95.984,96-95.984c52.93,0,95.992,43.062,95.992,95.984c0,52.938-43.062,96-95.992,96   C203.066,373.328,160.004,330.266,160.004,277.328z M354.277,213.328h61.719v128h-61.719c12.031-18.406,19.062-40.406,19.062-64   S366.309,231.75,354.277,213.328z M138.66,21.344h21.344c0,5.875,4.766,10.656,10.656,10.656s10.672-4.781,10.672-10.656h21.328   c0,5.875,4.781,10.656,10.672,10.656s10.672-4.781,10.672-10.656h21.328c0,5.875,4.766,10.656,10.672,10.656   c5.891,0,10.656-4.781,10.656-10.656h21.336c0,5.875,4.781,10.656,10.656,10.656c5.906,0,10.688-4.781,10.688-10.656h21.312   c0,5.875,4.781,10.656,10.688,10.656c5.875,0,10.656-4.781,10.656-10.656h21.344v21.312h-8.156l0,0H146.801c0,0,0,0-0.016,0h-8.125   L138.66,21.344L138.66,21.344z M157.473,64h197.055v21.344H157.473V64z M128.004,106.656h18.781c0.016,0,0.016,0,0.016,0h218.383   l0,0h18.812c17.656,0,32,14.375,32,32V192h-79.562c-21-19.828-49.344-32-80.43-32c-31.109,0-59.438,12.172-80.453,32H96.004   v-53.344C96.004,121.031,110.348,106.656,128.004,106.656z M383.996,490.672H128.004c-17.656,0-32-14.359-32-32v-96h79.547   c21.016,19.828,49.344,32,80.453,32c31.086,0,59.43-12.172,80.43-32h79.562v96C415.996,476.312,401.652,490.672,383.996,490.672z"/>
	<path style="fill:#080808;" d="M319.996,426.672H192.004c-5.906,0-10.672,4.766-10.672,10.656S186.098,448,192.004,448h127.992   c5.906,0,10.656-4.781,10.656-10.672S325.902,426.672,319.996,426.672z"/>
	<path style="fill:#080808;" d="M287.371,338.719c1.562,0.812,3.281,1.219,4.969,1.219c2.219,0,4.406-0.688,6.281-2.031   c3.281-2.391,4.938-6.438,4.25-10.438l-6-34.953l25.375-24.75c2.906-2.828,3.969-7.078,2.719-10.938s-4.594-6.672-8.625-7.25   l-35.094-5.109l-15.68-31.797c-1.797-3.641-5.516-5.953-9.562-5.953c-4.062,0-7.781,2.312-9.578,5.953l-15.688,31.797   l-35.094,5.109c-4.016,0.578-7.359,3.391-8.609,7.25c-1.25,3.859-0.203,8.109,2.703,10.938l25.391,24.75l-6,34.953   c-0.688,4,0.969,8.047,4.25,10.438c3.281,2.375,7.641,2.703,11.234,0.812l31.391-16.5L287.371,338.719z M233.816,309.766   l3.281-19.172c0.594-3.453-0.547-6.984-3.062-9.438l-13.938-13.578l19.25-2.797c3.484-0.516,6.484-2.688,8.031-5.844l8.625-17.438   l8.609,17.438c1.547,3.156,4.547,5.328,8.039,5.844l19.25,2.797l-13.938,13.578c-2.531,2.453-3.656,5.984-3.062,9.438l3.281,19.172   l-17.227-9.047c-1.547-0.812-3.25-1.219-4.953-1.219c-1.719,0-3.422,0.406-4.969,1.219L233.816,309.766z"/>
</g>
<g>
</g>
<g>
</g>
<g>
</g>
<g>
</g>
<g>
</g>
<g>
</g>
<g>
</g>
<g>
</g>
<g>
</g>
<g>
</g>
<g>
</g>
<g>
</g>
<g>
</g>
<g>
</g>
<g>
</g>
</svg>