<?xml version="1.0" encoding="utf-8"?>
<!-- Generator: Adobe Illustrator 21.1.0, SVG Export Plug-In . SVG Version: 6.00 Build 0)  -->
<svg version="1.1" id="Capa_1" xmlns="http://www.w3.org/2000/svg" xmlns:xlink="http://www.w3.org/1999/xlink" x="0px" y="0px"
	 viewBox="0 0 512 512" style="enable-background:new 0 0 512 512;" xml:space="preserve">
<style type="text/css">
	.st0{fill:#FF0000;}
</style>
<g>
	<g>
		<path class="st0" d="M52,41.1v429.8c0,22.7,18.4,41.1,41.1,41.1h325.8c22.7,0,41.1-18.4,41.1-41.1V41.1C460,18.4,441.6,0,418.9,0
			H93.1C70.4,0,52,18.4,52,41.1z M412.2,492H99.8C84.4,492,72,479.6,72,464.2V47.8C72,32.4,84.4,20,99.8,20h312.5
			c15.3,0,27.8,12.4,27.8,27.8v416.5C440,479.6,427.6,492,412.2,492z"/>
	</g>
</g>
<g>
	<g>
		<rect x="340" y="289" class="st0" width="30" height="30"/>
	</g>
</g>
<g>
	<g>
		<rect x="142" y="289" class="st0" width="138" height="30"/>
	</g>
</g>
<g>
	<g>
		<rect x="340" y="349" class="st0" width="30" height="30"/>
	</g>
</g>
<g>
	<g>
		<rect x="142" y="349" class="st0" width="138" height="30"/>
	</g>
</g>
<g>
	<g>
		<rect x="340" y="409" class="st0" width="30" height="30"/>
	</g>
</g>
<g>
	<g>
		<rect x="142" y="409" class="st0" width="138" height="30"/>
	</g>
</g>
<g>
	<g>
		<path class="st0" d="M301,62c-17.1,0-33.1,6.6-45,18.1C244.1,68.6,228.1,62,211,62c-35.8,0-65,29.2-65,65
			c0,77.4,99,128.3,103.2,130.4l6.8,3.4l6.8-3.4C267,255.3,366,204.4,366,127C366,91.2,336.8,62,301,62z M256,226.9
			c-8.3-4.8-23-14-37.7-26.8C199,183.3,176,157,176,127c0-19.3,15.7-35,35-35c13.2,0,25.1,7.3,31.1,19l4.2,8.1h19.3l4.2-8.1
			c6-11.7,18-19,31.1-19c19.3,0,35,15.7,35,35C336,176.1,276.4,215,256,226.9z"/>
	</g>
</g>
</svg>
